<?xml version="1.0" standalone="no"?>
<!DOCTYPE svg PUBLIC "-//W3C//DTD SVG 20010904//EN"
 "http://www.w3.org/TR/2001/REC-SVG-20010904/DTD/svg10.dtd">
<svg version="1.0" xmlns="http://www.w3.org/2000/svg"
 width="405.000000pt" height="405.000000pt" viewBox="0 0 405.000000 405.000000"
 preserveAspectRatio="xMidYMid meet">
<metadata>
Created by potrace 1.14, written by Peter Selinger 2001-2017
</metadata>
<g transform="translate(0.000000,405.000000) scale(0.100000,-0.100000)"
fill="#000000" stroke="none">
<path d="M1853 3715 c-68 -21 -133 -64 -212 -139 -202 -195 -381 -510 -636
-1121 -173 -417 -242 -743 -364 -1725 -27 -217 -46 -396 -42 -398 13 -4 -7
-221 -25 -284 -4 -14 1 -18 20 -18 29 0 28 -3 52 140 8 52 16 96 18 97 1 1
116 14 256 28 701 71 1494 173 2100 270 606 97 601 96 595 114 -3 12 4 20 26
28 27 11 30 15 25 45 -3 18 -13 161 -21 318 -33 605 -71 886 -156 1143 -46
137 -78 204 -161 337 -236 373 -639 794 -977 1020 -105 70 -233 134 -301 149
-61 14 -146 13 -197 -4z m180 -66 c91 -13 244 -86 348 -164 382 -288 853 -872
982 -1215 84 -226 142 -526 177 -925 22 -262 41 -598 33 -605 -44 -39 -2862
-414 -2891 -385 -5 5 32 391 74 775 60 544 128 875 241 1170 271 706 569 1186
815 1311 29 15 101 39 146 48 2 1 36 -4 75 -10z m1554 -2316 c-3 -10 -5 -4 -5
12 0 17 2 24 5 18 2 -7 2 -21 0 -30z"/>
<path d="M2867 1893 c-18 -30 -17 -75 1 -100 11 -16 23 -39 27 -52 6 -20 12
-22 39 -18 17 3 43 10 58 16 26 10 26 12 21 68 -3 32 -8 61 -12 64 -7 7 -93
29 -115 29 -8 0 -17 -3 -19 -7z m83 -87 c0 -3 -4 -8 -10 -11 -5 -3 -10 -1 -10
4 0 6 5 11 10 11 6 0 10 -2 10 -4z"/>
<path d="M1405 1765 c-33 -30 -36 -38 -30 -67 9 -44 15 -49 56 -48 96 1 94 0
93 56 -1 28 -7 60 -13 72 -18 34 -62 29 -106 -13z m60 -55 c3 -5 -1 -10 -10
-10 -9 0 -13 5 -10 10 3 6 8 10 10 10 2 0 7 -4 10 -10z"/>
<path d="M2145 1212 c-40 -6 -49 -10 -47 -24 2 -12 -4 -18 -18 -18 -15 0 -20
-6 -20 -25 0 -23 4 -25 43 -25 56 0 267 19 290 26 10 3 17 15 17 29 0 18 -4
23 -15 19 -8 -4 -21 -1 -29 5 -17 14 -152 22 -221 13z"/>
</g>
</svg>
